<mxfile host="app.diagrams.net" modified="2020-08-27T12:36:06.282Z" agent="5.0 (Macintosh; Intel Mac OS X 10_15_6) AppleWebKit/605.1.15 (KHTML, like Gecko) Version/13.1.2 Safari/605.1.15" etag="5BrbVhe3nuVCPfFAL6u9" version="13.6.5" type="github">
  <diagram id="R2lEEEUBdFMjLlhIrx00" name="Page-1">
    <mxGraphModel dx="842" dy="585" grid="1" gridSize="10" guides="1" tooltips="1" connect="1" arrows="1" fold="1" page="1" pageScale="1" pageWidth="850" pageHeight="1100" math="0" shadow="0" extFonts="Permanent Marker^https://fonts.googleapis.com/css?family=Permanent+Marker">
      <root>
        <mxCell id="0" />
        <mxCell id="1" parent="0" />
        <mxCell id="rUAam2fF626C5exKubJ2-57" value="Family Member" style="whiteSpace=wrap;html=1;align=center;rounded=1;" vertex="1" parent="1">
          <mxGeometry x="50" y="210" width="100" height="40" as="geometry" />
        </mxCell>
        <mxCell id="rUAam2fF626C5exKubJ2-58" value="&lt;u&gt;ID&lt;/u&gt;" style="ellipse;whiteSpace=wrap;html=1;align=center;rounded=1;" vertex="1" parent="1">
          <mxGeometry x="20" y="140" width="60" height="30" as="geometry" />
        </mxCell>
        <mxCell id="rUAam2fF626C5exKubJ2-59" value="&lt;font style=&quot;font-size: 10px&quot;&gt;Date of Birth&lt;/font&gt;" style="ellipse;whiteSpace=wrap;html=1;align=center;rounded=1;" vertex="1" parent="1">
          <mxGeometry x="150" y="160" width="70" height="20" as="geometry" />
        </mxCell>
        <mxCell id="rUAam2fF626C5exKubJ2-60" value="First Name" style="ellipse;whiteSpace=wrap;html=1;align=center;rounded=1;" vertex="1" parent="1">
          <mxGeometry x="60" y="90" width="50" height="30" as="geometry" />
        </mxCell>
        <mxCell id="rUAam2fF626C5exKubJ2-61" value="Name" style="ellipse;whiteSpace=wrap;html=1;align=center;rounded=1;" vertex="1" parent="1">
          <mxGeometry x="80" y="140" width="70" height="30" as="geometry" />
        </mxCell>
        <mxCell id="rUAam2fF626C5exKubJ2-62" value="Email Address" style="ellipse;whiteSpace=wrap;html=1;align=center;rounded=1;" vertex="1" parent="1">
          <mxGeometry x="40" y="270" width="65" height="40" as="geometry" />
        </mxCell>
        <mxCell id="rUAam2fF626C5exKubJ2-63" value="Last Name" style="ellipse;whiteSpace=wrap;html=1;align=center;rounded=1;" vertex="1" parent="1">
          <mxGeometry x="120" y="90" width="60" height="30" as="geometry" />
        </mxCell>
        <mxCell id="rUAam2fF626C5exKubJ2-64" value="" style="endArrow=none;html=1;curved=1;" edge="1" parent="1">
          <mxGeometry width="50" height="50" relative="1" as="geometry">
            <mxPoint x="110" y="210" as="sourcePoint" />
            <mxPoint x="109" y="171" as="targetPoint" />
          </mxGeometry>
        </mxCell>
        <mxCell id="rUAam2fF626C5exKubJ2-65" value="" style="endArrow=none;html=1;exitX=0.3;exitY=0;exitDx=0;exitDy=0;exitPerimeter=0;entryX=1;entryY=1;entryDx=0;entryDy=0;curved=1;" edge="1" parent="1" source="rUAam2fF626C5exKubJ2-57" target="rUAam2fF626C5exKubJ2-58">
          <mxGeometry width="50" height="50" relative="1" as="geometry">
            <mxPoint x="70" y="190" as="sourcePoint" />
            <mxPoint x="100" y="160" as="targetPoint" />
            <Array as="points">
              <mxPoint x="80" y="180" />
            </Array>
          </mxGeometry>
        </mxCell>
        <mxCell id="rUAam2fF626C5exKubJ2-66" value="" style="endArrow=none;html=1;curved=1;" edge="1" parent="1">
          <mxGeometry width="50" height="50" relative="1" as="geometry">
            <mxPoint x="120" y="140" as="sourcePoint" />
            <mxPoint x="140" y="120" as="targetPoint" />
            <Array as="points">
              <mxPoint x="140" y="120" />
            </Array>
          </mxGeometry>
        </mxCell>
        <mxCell id="rUAam2fF626C5exKubJ2-67" value="" style="endArrow=none;html=1;exitX=0.409;exitY=-0.013;exitDx=0;exitDy=0;exitPerimeter=0;entryX=0.66;entryY=0.96;entryDx=0;entryDy=0;entryPerimeter=0;" edge="1" parent="1" source="rUAam2fF626C5exKubJ2-61" target="rUAam2fF626C5exKubJ2-60">
          <mxGeometry width="50" height="50" relative="1" as="geometry">
            <mxPoint x="130" y="220" as="sourcePoint" />
            <mxPoint x="180" y="170" as="targetPoint" />
            <Array as="points" />
          </mxGeometry>
        </mxCell>
        <mxCell id="rUAam2fF626C5exKubJ2-68" value="" style="endArrow=none;html=1;" edge="1" parent="1" source="rUAam2fF626C5exKubJ2-57">
          <mxGeometry width="50" height="50" relative="1" as="geometry">
            <mxPoint x="150" y="210" as="sourcePoint" />
            <mxPoint x="180" y="180" as="targetPoint" />
          </mxGeometry>
        </mxCell>
        <mxCell id="rUAam2fF626C5exKubJ2-69" value="&lt;font style=&quot;font-size: 10px&quot;&gt;Whatsapp Id&lt;/font&gt;" style="ellipse;whiteSpace=wrap;html=1;align=center;rounded=1;" vertex="1" parent="1">
          <mxGeometry x="110" y="275" width="60" height="30" as="geometry" />
        </mxCell>
        <mxCell id="rUAam2fF626C5exKubJ2-70" value="" style="endArrow=none;html=1;" edge="1" parent="1" source="rUAam2fF626C5exKubJ2-57" target="rUAam2fF626C5exKubJ2-69">
          <mxGeometry width="50" height="50" relative="1" as="geometry">
            <mxPoint x="105" y="290" as="sourcePoint" />
            <mxPoint x="155" y="240" as="targetPoint" />
          </mxGeometry>
        </mxCell>
        <mxCell id="rUAam2fF626C5exKubJ2-71" value="" style="endArrow=none;html=1;entryX=0.299;entryY=0.979;entryDx=0;entryDy=0;entryPerimeter=0;" edge="1" parent="1" source="rUAam2fF626C5exKubJ2-62" target="rUAam2fF626C5exKubJ2-57">
          <mxGeometry width="50" height="50" relative="1" as="geometry">
            <mxPoint x="50" y="260.56" as="sourcePoint" />
            <mxPoint x="92.84000000000003" y="249.99999999999994" as="targetPoint" />
          </mxGeometry>
        </mxCell>
        <mxCell id="rUAam2fF626C5exKubJ2-72" value="&lt;font style=&quot;font-size: 10px&quot;&gt;Did Not Complete&lt;/font&gt;" style="shape=rhombus;perimeter=rhombusPerimeter;whiteSpace=wrap;html=1;align=center;rounded=1;" vertex="1" parent="1">
          <mxGeometry x="280" y="200" width="70" height="60" as="geometry" />
        </mxCell>
        <mxCell id="rUAam2fF626C5exKubJ2-73" value="Trip" style="rounded=1;arcSize=10;whiteSpace=wrap;html=1;align=center;" vertex="1" parent="1">
          <mxGeometry x="500" y="210" width="100" height="40" as="geometry" />
        </mxCell>
        <mxCell id="rUAam2fF626C5exKubJ2-74" value="Name" style="ellipse;whiteSpace=wrap;html=1;align=center;rounded=1;" vertex="1" parent="1">
          <mxGeometry x="460" y="140" width="60" height="30" as="geometry" />
        </mxCell>
        <mxCell id="rUAam2fF626C5exKubJ2-75" value="&lt;font style=&quot;font-size: 10px&quot;&gt;Description&lt;/font&gt;" style="ellipse;whiteSpace=wrap;html=1;align=center;rounded=1;" vertex="1" parent="1">
          <mxGeometry x="540" y="140" width="60" height="30" as="geometry" />
        </mxCell>
        <mxCell id="rUAam2fF626C5exKubJ2-76" value="&lt;font style=&quot;font-size: 10px&quot;&gt;Destination&lt;/font&gt;" style="ellipse;whiteSpace=wrap;html=1;align=center;rounded=1;" vertex="1" parent="1">
          <mxGeometry x="620" y="155" width="60" height="30" as="geometry" />
        </mxCell>
        <mxCell id="rUAam2fF626C5exKubJ2-77" value="" style="endArrow=none;html=1;entryX=0;entryY=1;entryDx=0;entryDy=0;" edge="1" parent="1" source="rUAam2fF626C5exKubJ2-73" target="rUAam2fF626C5exKubJ2-76">
          <mxGeometry width="50" height="50" relative="1" as="geometry">
            <mxPoint x="600" y="210" as="sourcePoint" />
            <mxPoint x="630" y="190" as="targetPoint" />
          </mxGeometry>
        </mxCell>
        <mxCell id="rUAam2fF626C5exKubJ2-78" value="" style="endArrow=none;html=1;entryX=1;entryY=1;entryDx=0;entryDy=0;" edge="1" parent="1" source="rUAam2fF626C5exKubJ2-73" target="rUAam2fF626C5exKubJ2-74">
          <mxGeometry width="50" height="50" relative="1" as="geometry">
            <mxPoint x="500" y="210" as="sourcePoint" />
            <mxPoint x="550" y="160" as="targetPoint" />
          </mxGeometry>
        </mxCell>
        <mxCell id="rUAam2fF626C5exKubJ2-79" value="" style="endArrow=none;html=1;" edge="1" parent="1" source="rUAam2fF626C5exKubJ2-73" target="rUAam2fF626C5exKubJ2-75">
          <mxGeometry width="50" height="50" relative="1" as="geometry">
            <mxPoint x="520" y="220" as="sourcePoint" />
            <mxPoint x="570" y="170" as="targetPoint" />
          </mxGeometry>
        </mxCell>
        <mxCell id="rUAam2fF626C5exKubJ2-80" value="n" style="text;html=1;align=center;verticalAlign=middle;resizable=0;points=[];autosize=1;" vertex="1" parent="1">
          <mxGeometry x="150" y="210" width="20" height="20" as="geometry" />
        </mxCell>
        <mxCell id="rUAam2fF626C5exKubJ2-81" value="Suffix" style="ellipse;whiteSpace=wrap;html=1;align=center;rounded=1;" vertex="1" parent="1">
          <mxGeometry x="180" y="110" width="60" height="30" as="geometry" />
        </mxCell>
        <mxCell id="rUAam2fF626C5exKubJ2-82" value="" style="endArrow=none;html=1;curved=1;entryX=0.03;entryY=0.667;entryDx=0;entryDy=0;entryPerimeter=0;" edge="1" parent="1" source="rUAam2fF626C5exKubJ2-61" target="rUAam2fF626C5exKubJ2-81">
          <mxGeometry width="50" height="50" relative="1" as="geometry">
            <mxPoint x="150" y="150" as="sourcePoint" />
            <mxPoint x="170" y="130" as="targetPoint" />
            <Array as="points" />
          </mxGeometry>
        </mxCell>
        <mxCell id="rUAam2fF626C5exKubJ2-83" value="&lt;font style=&quot;font-size: 10px&quot;&gt;Itinerary&lt;/font&gt;" style="ellipse;whiteSpace=wrap;html=1;align=center;rounded=1;" vertex="1" parent="1">
          <mxGeometry x="630" y="205" width="60" height="30" as="geometry" />
        </mxCell>
        <mxCell id="rUAam2fF626C5exKubJ2-84" value="&lt;font style=&quot;font-size: 10px&quot;&gt;Cost&lt;/font&gt;" style="ellipse;whiteSpace=wrap;html=1;align=center;rounded=1;" vertex="1" parent="1">
          <mxGeometry x="630" y="250" width="60" height="30" as="geometry" />
        </mxCell>
        <mxCell id="rUAam2fF626C5exKubJ2-85" value="" style="endArrow=none;html=1;entryX=0;entryY=0.5;entryDx=0;entryDy=0;exitX=1;exitY=0.382;exitDx=0;exitDy=0;exitPerimeter=0;" edge="1" parent="1" source="rUAam2fF626C5exKubJ2-73" target="rUAam2fF626C5exKubJ2-83">
          <mxGeometry width="50" height="50" relative="1" as="geometry">
            <mxPoint x="480" y="320" as="sourcePoint" />
            <mxPoint x="530" y="270" as="targetPoint" />
          </mxGeometry>
        </mxCell>
        <mxCell id="rUAam2fF626C5exKubJ2-86" value="" style="endArrow=none;html=1;entryX=0;entryY=0.333;entryDx=0;entryDy=0;exitX=1.004;exitY=0.835;exitDx=0;exitDy=0;exitPerimeter=0;entryPerimeter=0;" edge="1" parent="1" source="rUAam2fF626C5exKubJ2-73" target="rUAam2fF626C5exKubJ2-84">
          <mxGeometry width="50" height="50" relative="1" as="geometry">
            <mxPoint x="610.0000000000001" y="235.28000000000003" as="sourcePoint" />
            <mxPoint x="639.9999999999999" y="230" as="targetPoint" />
          </mxGeometry>
        </mxCell>
        <mxCell id="rUAam2fF626C5exKubJ2-87" value="" style="endArrow=none;html=1;rounded=0;dashed=1;dashPattern=1 2;entryX=0;entryY=0.5;entryDx=0;entryDy=0;" edge="1" parent="1" target="rUAam2fF626C5exKubJ2-73">
          <mxGeometry relative="1" as="geometry">
            <mxPoint x="345" y="230" as="sourcePoint" />
            <mxPoint x="505" y="229.52" as="targetPoint" />
          </mxGeometry>
        </mxCell>
        <mxCell id="rUAam2fF626C5exKubJ2-88" value="1" style="resizable=0;html=1;align=right;verticalAlign=bottom;" connectable="0" vertex="1" parent="rUAam2fF626C5exKubJ2-87">
          <mxGeometry x="1" relative="1" as="geometry" />
        </mxCell>
        <mxCell id="rUAam2fF626C5exKubJ2-89" value="" style="endArrow=none;html=1;rounded=0;dashed=1;dashPattern=1 2;" edge="1" parent="1" target="rUAam2fF626C5exKubJ2-72">
          <mxGeometry relative="1" as="geometry">
            <mxPoint x="150" y="229.16999999999996" as="sourcePoint" />
            <mxPoint x="305" y="229.17" as="targetPoint" />
          </mxGeometry>
        </mxCell>
        <mxCell id="rUAam2fF626C5exKubJ2-90" value="Luggage" style="shape=ext;margin=3;double=1;whiteSpace=wrap;html=1;align=center;rounded=1;" vertex="1" parent="1">
          <mxGeometry x="265" y="370" width="100" height="40" as="geometry" />
        </mxCell>
        <mxCell id="rUAam2fF626C5exKubJ2-91" value="Has" style="shape=rhombus;perimeter=rhombusPerimeter;whiteSpace=wrap;html=1;align=center;rounded=1;" vertex="1" parent="1">
          <mxGeometry x="200" y="290" width="50" height="40" as="geometry" />
        </mxCell>
        <mxCell id="rUAam2fF626C5exKubJ2-92" value="&lt;font style=&quot;font-size: 9px&quot;&gt;Goes on&lt;/font&gt;" style="shape=rhombus;perimeter=rhombusPerimeter;whiteSpace=wrap;html=1;align=center;rounded=1;" vertex="1" parent="1">
          <mxGeometry x="424" y="290" width="50" height="40" as="geometry" />
        </mxCell>
        <mxCell id="rUAam2fF626C5exKubJ2-93" value="" style="endArrow=classic;html=1;exitX=1;exitY=0.918;exitDx=0;exitDy=0;exitPerimeter=0;entryX=0;entryY=0;entryDx=0;entryDy=0;" edge="1" parent="1" source="rUAam2fF626C5exKubJ2-57" target="rUAam2fF626C5exKubJ2-91">
          <mxGeometry width="50" height="50" relative="1" as="geometry">
            <mxPoint x="290" y="350" as="sourcePoint" />
            <mxPoint x="340" y="300" as="targetPoint" />
          </mxGeometry>
        </mxCell>
        <mxCell id="rUAam2fF626C5exKubJ2-94" value="" style="endArrow=classic;html=1;entryX=0.25;entryY=0;entryDx=0;entryDy=0;" edge="1" parent="1" target="rUAam2fF626C5exKubJ2-90">
          <mxGeometry width="50" height="50" relative="1" as="geometry">
            <mxPoint x="240" y="320" as="sourcePoint" />
            <mxPoint x="302.5000000000001" y="373.28" as="targetPoint" />
          </mxGeometry>
        </mxCell>
        <mxCell id="rUAam2fF626C5exKubJ2-95" value="" style="endArrow=classic;html=1;exitX=0.85;exitY=0;exitDx=0;exitDy=0;exitPerimeter=0;" edge="1" parent="1" source="rUAam2fF626C5exKubJ2-90">
          <mxGeometry width="50" height="50" relative="1" as="geometry">
            <mxPoint x="350" y="340" as="sourcePoint" />
            <mxPoint x="429" y="310" as="targetPoint" />
          </mxGeometry>
        </mxCell>
        <mxCell id="rUAam2fF626C5exKubJ2-96" value="" style="endArrow=classic;html=1;entryX=0.047;entryY=1.013;entryDx=0;entryDy=0;entryPerimeter=0;exitX=1;exitY=0;exitDx=0;exitDy=0;" edge="1" parent="1" source="rUAam2fF626C5exKubJ2-92" target="rUAam2fF626C5exKubJ2-73">
          <mxGeometry width="50" height="50" relative="1" as="geometry">
            <mxPoint x="460" y="302" as="sourcePoint" />
            <mxPoint x="539" y="249.99999999999994" as="targetPoint" />
          </mxGeometry>
        </mxCell>
        <mxCell id="rUAam2fF626C5exKubJ2-97" value="m" style="text;html=1;align=center;verticalAlign=middle;resizable=0;points=[];autosize=1;" vertex="1" parent="1">
          <mxGeometry x="335" y="340" width="30" height="20" as="geometry" />
        </mxCell>
        <mxCell id="rUAam2fF626C5exKubJ2-98" value="1" style="text;html=1;align=center;verticalAlign=middle;resizable=0;points=[];autosize=1;" vertex="1" parent="1">
          <mxGeometry x="470" y="240" width="20" height="20" as="geometry" />
        </mxCell>
        <mxCell id="rUAam2fF626C5exKubJ2-99" value="1" style="text;html=1;align=center;verticalAlign=middle;resizable=0;points=[];autosize=1;" vertex="1" parent="1">
          <mxGeometry x="150" y="235" width="20" height="20" as="geometry" />
        </mxCell>
        <mxCell id="rUAam2fF626C5exKubJ2-100" value="m" style="text;html=1;align=center;verticalAlign=middle;resizable=0;points=[];autosize=1;" vertex="1" parent="1">
          <mxGeometry x="275" y="340" width="30" height="20" as="geometry" />
        </mxCell>
        <mxCell id="rUAam2fF626C5exKubJ2-101" value="&lt;font style=&quot;font-size: 10px&quot;&gt;Date Returned&lt;/font&gt;&lt;font style=&quot;font-size: 11px&quot;&gt;&amp;nbsp;&lt;/font&gt;" style="ellipse;whiteSpace=wrap;html=1;align=center;rounded=1;" vertex="1" parent="1">
          <mxGeometry x="260" y="145" width="60" height="30" as="geometry" />
        </mxCell>
        <mxCell id="rUAam2fF626C5exKubJ2-102" value="&lt;font style=&quot;font-size: 10px&quot;&gt;Reason&lt;/font&gt;" style="ellipse;whiteSpace=wrap;html=1;align=center;rounded=1;" vertex="1" parent="1">
          <mxGeometry x="330" y="150" width="40" height="20" as="geometry" />
        </mxCell>
        <mxCell id="rUAam2fF626C5exKubJ2-103" value="" style="endArrow=none;html=1;entryX=0.368;entryY=0.979;entryDx=0;entryDy=0;entryPerimeter=0;" edge="1" parent="1" target="rUAam2fF626C5exKubJ2-102">
          <mxGeometry width="50" height="50" relative="1" as="geometry">
            <mxPoint x="322" y="205" as="sourcePoint" />
            <mxPoint x="370" y="175" as="targetPoint" />
          </mxGeometry>
        </mxCell>
        <mxCell id="rUAam2fF626C5exKubJ2-104" value="" style="endArrow=none;html=1;entryX=0.555;entryY=1.041;entryDx=0;entryDy=0;entryPerimeter=0;exitX=0.414;exitY=0.104;exitDx=0;exitDy=0;exitPerimeter=0;" edge="1" parent="1" source="rUAam2fF626C5exKubJ2-72" target="rUAam2fF626C5exKubJ2-101">
          <mxGeometry width="50" height="50" relative="1" as="geometry">
            <mxPoint x="305" y="206" as="sourcePoint" />
            <mxPoint x="260" y="180" as="targetPoint" />
          </mxGeometry>
        </mxCell>
        <mxCell id="rUAam2fF626C5exKubJ2-105" value="&lt;font style=&quot;font-size: 10px&quot;&gt;&lt;u&gt;Label&lt;/u&gt;&lt;/font&gt;" style="ellipse;whiteSpace=wrap;html=1;align=center;rounded=1;" vertex="1" parent="1">
          <mxGeometry x="240" y="445" width="50" height="20" as="geometry" />
        </mxCell>
        <mxCell id="rUAam2fF626C5exKubJ2-106" value="&lt;font style=&quot;font-size: 10px&quot;&gt;Contents&lt;/font&gt;" style="ellipse;whiteSpace=wrap;html=1;align=center;rounded=1;" vertex="1" parent="1">
          <mxGeometry x="190" y="410" width="50" height="20" as="geometry" />
        </mxCell>
        <mxCell id="rUAam2fF626C5exKubJ2-107" value="&lt;font style=&quot;font-size: 10px&quot;&gt;Size&lt;/font&gt;" style="ellipse;whiteSpace=wrap;html=1;align=center;rounded=1;" vertex="1" parent="1">
          <mxGeometry x="305" y="445" width="40" height="20" as="geometry" />
        </mxCell>
        <mxCell id="rUAam2fF626C5exKubJ2-108" value="&lt;font style=&quot;font-size: 10px&quot;&gt;Colour&lt;/font&gt;" style="ellipse;whiteSpace=wrap;html=1;align=center;rounded=1;" vertex="1" parent="1">
          <mxGeometry x="360" y="430" width="50" height="20" as="geometry" />
        </mxCell>
        <mxCell id="rUAam2fF626C5exKubJ2-109" value="" style="endArrow=none;html=1;entryX=0;entryY=0.75;entryDx=0;entryDy=0;exitX=0.959;exitY=0.264;exitDx=0;exitDy=0;exitPerimeter=0;" edge="1" parent="1" source="rUAam2fF626C5exKubJ2-106" target="rUAam2fF626C5exKubJ2-90">
          <mxGeometry width="50" height="50" relative="1" as="geometry">
            <mxPoint x="240" y="380" as="sourcePoint" />
            <mxPoint x="290" y="330" as="targetPoint" />
          </mxGeometry>
        </mxCell>
        <mxCell id="rUAam2fF626C5exKubJ2-110" value="" style="endArrow=none;html=1;entryX=0.192;entryY=0.994;entryDx=0;entryDy=0;entryPerimeter=0;exitX=0.5;exitY=0;exitDx=0;exitDy=0;" edge="1" parent="1" source="rUAam2fF626C5exKubJ2-105" target="rUAam2fF626C5exKubJ2-90">
          <mxGeometry width="50" height="50" relative="1" as="geometry">
            <mxPoint x="170" y="495" as="sourcePoint" />
            <mxPoint x="220" y="445" as="targetPoint" />
          </mxGeometry>
        </mxCell>
        <mxCell id="rUAam2fF626C5exKubJ2-111" value="" style="endArrow=none;html=1;entryX=0.604;entryY=1.02;entryDx=0;entryDy=0;entryPerimeter=0;exitX=0.5;exitY=0;exitDx=0;exitDy=0;" edge="1" parent="1" source="rUAam2fF626C5exKubJ2-107" target="rUAam2fF626C5exKubJ2-90">
          <mxGeometry width="50" height="50" relative="1" as="geometry">
            <mxPoint x="324" y="440" as="sourcePoint" />
            <mxPoint x="275.0000000000001" y="410" as="targetPoint" />
          </mxGeometry>
        </mxCell>
        <mxCell id="rUAam2fF626C5exKubJ2-112" value="" style="endArrow=none;html=1;entryX=0.95;entryY=1.011;entryDx=0;entryDy=0;entryPerimeter=0;exitX=0.318;exitY=0.126;exitDx=0;exitDy=0;exitPerimeter=0;" edge="1" parent="1" source="rUAam2fF626C5exKubJ2-108" target="rUAam2fF626C5exKubJ2-90">
          <mxGeometry width="50" height="50" relative="1" as="geometry">
            <mxPoint x="350" y="440" as="sourcePoint" />
            <mxPoint x="400" y="390" as="targetPoint" />
          </mxGeometry>
        </mxCell>
        <mxCell id="rUAam2fF626C5exKubJ2-113" value="&lt;font style=&quot;font-size: 20px&quot;&gt;&lt;u&gt;&lt;b&gt;SECTION B&lt;/b&gt;&lt;/u&gt;&lt;/font&gt;" style="text;html=1;align=center;verticalAlign=middle;resizable=0;points=[];autosize=1;" vertex="1" parent="1">
          <mxGeometry x="290" y="50" width="120" height="20" as="geometry" />
        </mxCell>
      </root>
    </mxGraphModel>
  </diagram>
</mxfile>
